<svg width="33" height="33" viewBox="0 0 33 33" fill="none" xmlns="http://www.w3.org/2000/svg">
<path d="M12 0H3C2.20435 0 1.44129 0.31607 0.87868 0.87868C0.31607 1.44129 0 2.20435 0 3V12C0 12.7956 0.31607 13.5587 0.87868 14.1213C1.44129 14.6839 2.20435 15 3 15H12C12.7956 15 13.5587 14.6839 14.1213 14.1213C14.6839 13.5587 15 12.7956 15 12V3C15 2.20435 14.6839 1.44129 14.1213 0.87868C13.5587 0.31607 12.7956 0 12 0ZM12 12H3V3H12V12ZM30 0H21C20.2043 0 19.4413 0.31607 18.8787 0.87868C18.3161 1.44129 18 2.20435 18 3V12C18 12.7956 18.3161 13.5587 18.8787 14.1213C19.4413 14.6839 20.2043 15 21 15H30C30.7957 15 31.5587 14.6839 32.1213 14.1213C32.6839 13.5587 33 12.7956 33 12V3C33 2.20435 32.6839 1.44129 32.1213 0.87868C31.5587 0.31607 30.7957 0 30 0ZM30 12H21V3H30V12ZM12 18H3C2.20435 18 1.44129 18.3161 0.87868 18.8787C0.31607 19.4413 0 20.2043 0 21V30C0 30.7957 0.31607 31.5587 0.87868 32.1213C1.44129 32.6839 2.20435 33 3 33H12C12.7956 33 13.5587 32.6839 14.1213 32.1213C14.6839 31.5587 15 30.7957 15 30V21C15 20.2043 14.6839 19.4413 14.1213 18.8787C13.5587 18.3161 12.7956 18 12 18ZM12 30H3V21H12V30ZM30 18H21C20.2043 18 19.4413 18.3161 18.8787 18.8787C18.3161 19.4413 18 20.2043 18 21V30C18 30.7957 18.3161 31.5587 18.8787 32.1213C19.4413 32.6839 20.2043 33 21 33H30C30.7957 33 31.5587 32.6839 32.1213 32.1213C32.6839 31.5587 33 30.7957 33 30V21C33 20.2043 32.6839 19.4413 32.1213 18.8787C31.5587 18.3161 30.7957 18 30 18ZM30 30H21V21H30V30Z" fill="black"/>
</svg>
